# xmcd
#
# Track frame offsets:
#	150
#	15302
#	31935
#	53517
#	69827
#	88182
#	106695
#	125947
#	140220
#	157047
#	173277
#	186832
#	206359
#	223512
#	235175
#
# Disc length: 3406 seconds
#
# Revision: 2
# Processed by: cddbd v1.5.1PL2 Copyright (c) Steve Scherf et al.
# Submitted via: audiograbber 1.83.01
#
DISCID=c30d4c0f
DTITLE=Various Artist - Sound Choice 8230 Yesterday's Country Vol 8
DYEAR=1994
DGENRE=Karaoke
TTITLE0=George Strait - Love Without End, Amen
TTITLE1=Pam Tillis - Maybe It Was Memphis
TTITLE2=Robin Lee - Black Velvet
TTITLE3=Randy Travis - The Box
TTITLE4=Diamond Rio - Bubba Hyde
TTITLE5=Dolly Parton - Yellow Roses
TTITLE6=Restless Heart - Dancy's Dream
TTITLE7=Ricky Van Shelton - I Meant Every Word He Said
TTITLE8=Joe Diffie - So Help Me Girl
TTITLE9=Mary-Chapin Carpenter - House Of Cards
TTITLE10=Brooks and Dunn - Refried Dreams
TTITLE11=Collin Raye - If I Were You
TTITLE12=Lacy J. Dalton - Black Coffee
TTITLE13=Kathy Mattea - Burnin' Old Memories
TTITLE14=Vince Gill - Which Bridge To Cross
EXTD=
EXTT0=
EXTT1=
EXTT2=
EXTT3=
EXTT4=
EXTT5=
EXTT6=
EXTT7=
EXTT8=
EXTT9=
EXTT10=
EXTT11=
EXTT12=
EXTT13=
EXTT14=
PLAYORDER=
